<?xml version="1.0" standalone="no"?><!DOCTYPE svg PUBLIC "-//W3C//DTD SVG 1.1//EN" "http://www.w3.org/Graphics/SVG/1.1/DTD/svg11.dtd"><svg t="1650203393910" class="icon" viewBox="0 0 1024 1024" version="1.1" xmlns="http://www.w3.org/2000/svg" p-id="2676" xmlns:xlink="http://www.w3.org/1999/xlink" width="15" height="15"><defs><style type="text/css">@font-face { font-family: feedback-iconfont; src: url("//at.alicdn.com/t/font_1031158_u69w8yhxdu.woff2?t=1630033759944") format("woff2"), url("//at.alicdn.com/t/font_1031158_u69w8yhxdu.woff?t=1630033759944") format("woff"), url("//at.alicdn.com/t/font_1031158_u69w8yhxdu.ttf?t=1630033759944") format("truetype"); }
</style></defs><path d="M879.893333 732.117333a20.181333 20.181333 0 1 1 29.098667 27.989334c-48.832 50.816-98.688 76.544-148.288 76.544-1.728 0-3.456-0.021333-5.184-0.085334-40.810667-1.493333-67.136-19.968-90.368-36.288-21.845333-15.36-40.704-28.629333-70.954667-29.290666-29.333333-1.024-46.997333 12.586667-67.712 27.946666-25.045333 18.517333-53.482667 39.466667-100.992 32.768-34.133333-4.885333-57.621333-19.242667-78.378666-31.893333-18.944-11.562667-36.842667-22.506667-62.613334-26.752-47.829333-7.914667-102.549333 11.264-162.453333 57.024a20.181333 20.181333 0 1 1-24.533333-32.085333c69.12-52.8 134.250667-74.666667 193.578666-64.768 33.493333 5.525333 56.64 19.648 77.077334 32.106666 19.925333 12.181333 37.162667 22.698667 63.018666 26.368 31.082667 4.416 48.853333-8.661333 71.296-25.258666 23.317333-17.237333 49.813333-36.48 92.608-35.84 42.517333 0.96 69.504 19.904 93.290667 36.629333 21.333333 14.997333 39.765333 27.946667 68.608 28.970667 39.274667 1.28 80.682667-20.138667 122.901333-64.085334zM503.04 179.584l140.992 141.013333 47.786667-47.808h138.154666l46.144 230.528 14.784 0.021334c8.042667 0 15.637333 3.562667 20.778667 9.6l1.813333 2.389333c5.077333 7.488 6.122667 17.002667 2.773334 25.429333l-39.509334 104.32c6.848-5.973333 13.738667-12.330667 20.650667-19.541333a20.202667 20.202667 0 1 1 29.098667 27.968c-48.832 50.837333-98.688 76.565333-148.309334 76.565333-1.706667 0-3.434667-0.021333-5.162666-0.085333-40.810667-1.493333-67.136-19.989333-90.368-36.309333-21.845333-15.36-40.704-28.608-70.976-29.269334-0.661333-0.042667-1.344-0.042667-2.005334-0.042666-27.882667 0-45.44 12.992-65.685333 27.946666-25.045333 18.56-53.504 39.488-100.992 32.789334-34.133333-4.864-57.642667-19.221333-78.4-31.893334-18.944-11.562667-36.842667-22.485333-62.592-26.730666-47.829333-7.893333-102.549333 11.264-162.453333 57.024a20.181333 20.181333 0 1 1-24.533334-32.085334c11.733333-8.96 23.253333-16.682667 34.730667-23.829333L98.133333 538.773333a27.413333 27.413333 0 0 1 4.053334-24.32c5.12-6.954667 13.354667-11.093333 21.994666-11.093333l39.530667-0.042667 0.853333-2.944c17.877333-61.44 56.597333-96.768 113.237334-102.613333l39.381333-78.72 185.856-139.456z m368.917333 364.117333H143.573333l41.813334 104.234667c43.221333-20.416 84.48-27.733333 123.242666-21.290667 33.493333 5.525333 56.618667 19.626667 77.034667 32.106667 19.946667 12.16 37.162667 22.677333 63.061333 26.346667 31.146667 4.394667 48.853333-8.661333 71.296-25.237334 23.296-17.258667 49.834667-36.544 92.586667-35.84 42.538667 0.938667 69.504 19.904 93.290667 36.629334 21.333333 14.976 39.765333 27.946667 68.608 28.970666 14.826667 0.533333 29.973333-2.218667 45.333333-8.213333l52.138667-137.706667z m-580.394666-104.106666c-41.514667 1.216-68.394667 21.333333-83.2 63.722666l215.104 0.021334c-8.469333-6.485333-18.261333-13.226667-29.376-20.202667-21.12-13.248-48.362667-27.114667-81.642667-41.557333a78.912 78.912 0 0 0-20.885333-2.005334z m207.466666-203.669334l-148.202666 111.168-26.56 53.141334 1.493333 0.64c42.026667 10.432 92.757333 41.045333 153.386667 91.392l350.570666-3.434667-34.709333-173.397333h-85.525333l-65.429334 65.514666-38.058666-38.08-80.981334 62.293334-26.026666-33.834667 76.565333-58.88-76.522667-76.522667z m-8.256 56.490667l26.026667 33.813333-83.2 64-26.026667-33.834666 83.2-64z" p-id="2677"></path></svg>