<?xml version="1.0" standalone="no"?><!DOCTYPE svg PUBLIC "-//W3C//DTD SVG 1.1//EN" "http://www.w3.org/Graphics/SVG/1.1/DTD/svg11.dtd"><svg t="1650203414489" class="icon" viewBox="0 0 1024 1024" version="1.1" xmlns="http://www.w3.org/2000/svg" p-id="1022" xmlns:xlink="http://www.w3.org/1999/xlink" width="200" height="200"><defs><style type="text/css">@font-face { font-family: feedback-iconfont; src: url("//at.alicdn.com/t/font_1031158_u69w8yhxdu.woff2?t=1630033759944") format("woff2"), url("//at.alicdn.com/t/font_1031158_u69w8yhxdu.woff?t=1630033759944") format("woff"), url("//at.alicdn.com/t/font_1031158_u69w8yhxdu.ttf?t=1630033759944") format("truetype"); }
</style></defs><path d="M689.066667 780.8c56.768 0 125.738667 13.269333 207.146666 39.637333l18.986667 6.314667-13.866667 42.496C815.722667 840.106667 744.853333 825.6 689.066667 825.6c-27.733333 0-42.154667 3.477333-63.232 14.037333l-10.986667 5.781334c-33.493333 18.005333-56.96 24.981333-101.269333 24.981333-38.570667 0-62.634667-4.992-99.264-18.496l-14.122667-5.376c-40.682667-15.786667-61.525333-20.928-99.733333-20.928-57.344 0-109.930667 11.818667-158.016 35.413333l-13.013334 6.741334-20.629333-39.509334c58.026667-31.637333 122.026667-47.445333 191.658667-47.445333 40.064 0 64.789333 5.098667 102.314666 18.922667l14.4 5.482666c39.637333 15.402667 59.882667 20.394667 96.426667 20.394667 32.853333 0 49.642667-4.032 72.832-15.658667l10.730667-5.632c31.744-17.066667 52.714667-23.509333 91.904-23.509333zM215.04 467.2a61.44 61.44 0 0 1 61.461333 61.44V556.8L915.2 556.8v136.64c0.106667 2.24-0.277333 17.237333-25.6 35.264l6.613333 2.133333 18.986667 6.314667-13.866667 42.496C815.722667 750.506667 744.853333 736 689.066667 736c-27.733333 0-42.154667 3.477333-63.232 14.037333l-10.986667 5.781334c-33.493333 18.005333-56.96 24.981333-101.269333 24.981333-38.570667 0-62.634667-4.992-99.264-18.496l-14.122667-5.376c-40.682667-15.786667-61.525333-20.928-99.733333-20.928-57.344 0-109.930667 11.818667-158.016 35.413333l-13.013334 6.741334-20.629333-39.509334a383.637333 383.637333 0 0 1 50.432-22.954666l0.213333 0.256a206.784 206.784 0 0 1-50.517333-129.237334L108.8 579.2V556.8l44.8-0.021333v-28.117334a61.44 61.44 0 0 1 61.44-61.461333z m656.149333 134.4l-594.688-0.021333v0.021333H153.6v-0.021333l-0.832 0.021333 0.426667 3.029333a158.677333 158.677333 0 0 0 52.992 96.341334c-12.352 2.965333-24.469333 6.613333-36.352 10.986666 41.002667-13.845333 84.586667-20.757333 130.624-20.757333 40.064 0 64.789333 5.098667 102.314666 18.922667l14.4 5.482666c39.637333 15.402667 59.882667 20.394667 96.426667 20.394667 32.853333 0 49.642667-4.032 72.832-15.658667l10.730667-5.632c31.744-17.066667 52.714667-23.509333 91.904-23.509333 42.048 0 90.816 7.274667 146.346666 21.76 14.848-6.122667 27.434667-13.44 35.413334-21.76-0.106667 0.64 0-27.114667 0.32-83.242667l0.042666-6.357333zM215.04 509.866667a18.773333 18.773333 0 0 0-18.645333 16.426666l-0.149334 2.346667V556.8h37.568v-28.117333a18.773333 18.773333 0 0 0-16.426666-18.645334l-2.346667-0.149333z m587.605333-266.666667a69.994667 69.994667 0 0 1 69.994667 69.994667V467.2h22.4a22.4 22.4 0 0 1 0 44.8h-224a22.4 22.4 0 0 1 0-44.8h22.4v-44.8H556.8v-44.8h181.461333v89.6h89.6v-154.005333c0-13.909333-11.285333-25.194667-25.194666-25.194667H556.8v-44.8h245.866667zM489.6 218.88c24.746667 0 44.8 20.053333 44.8 44.8v134.4a44.8 44.8 0 0 1-44.8 44.8h-44.8a44.8 44.8 0 0 1-44.8-44.8v-134.4c0-24.746667 20.053333-44.8 44.8-44.8h44.8z m-134.4-65.28a22.4 22.4 0 0 1 0 44.8H332.8v44.8h44.8v44.8h-89.6V198.4H198.4v154.005333c0 13.909333 11.285333 25.194667 25.194667 25.194667H377.6v44.8h-154.005333A69.994667 69.994667 0 0 1 153.6 352.405333V198.4H131.2a22.4 22.4 0 0 1 0-44.8h224z m134.4 112h-44.8v136.704h44.8V265.6z" p-id="1023"></path></svg>